<svg width="30" height="27" viewBox="0 0 30 27" fill="none" xmlns="http://www.w3.org/2000/svg">
<path d="M9.92188 13.5C9.92188 14.0609 10.3766 14.5156 10.9375 14.5156H13.9844V17.5625C13.9844 18.1234 14.4391 18.5781 15 18.5781C15.5609 18.5781 16.0156 18.1234 16.0156 17.5625V14.5156H19.0625C19.6234 14.5156 20.0781 14.0609 20.0781 13.5C20.0781 12.9391 19.6234 12.4844 19.0625 12.4844H16.0156V9.4375C16.0156 8.87657 15.5609 8.42188 15 8.42188C14.4391 8.42188 13.9844 8.87657 13.9844 9.4375V12.4844H10.9375C10.3766 12.4844 9.92188 12.9391 9.92188 13.5Z" fill="white" fill-opacity="0.8"/>
<path d="M10.1448 3.6386L11.4585 3.09443C11.9767 2.87972 12.2228 2.28563 12.0081 1.76741C11.7934 1.24919 11.1994 1.00295 10.6811 1.21781L9.36744 1.76198C8.84927 1.97668 8.60313 2.57077 8.81783 3.08899C9.03182 3.60549 9.62495 3.85381 10.1448 3.6386Z" fill="white" fill-opacity="0.8"/>
<path d="M15 0.5C14.4391 0.5 13.9844 0.954695 13.9844 1.51562C13.9844 2.07655 14.4391 2.53125 15 2.53125C21.0622 2.53125 25.9688 7.43713 25.9688 13.5C25.9688 19.5622 21.0629 24.4688 15 24.4688C8.93784 24.4688 4.03125 19.5629 4.03125 13.5C4.03125 12.9391 3.57655 12.4844 3.01562 12.4844C2.4547 12.4844 2 12.9391 2 13.5C2 20.6847 7.8143 26.5 15 26.5C22.1847 26.5 28 20.6857 28 13.5C28 6.31532 22.1857 0.5 15 0.5Z" fill="white" fill-opacity="0.8"/>
<path d="M6.74165 6.24656L7.74707 5.24114C8.14372 4.84449 8.14372 4.2014 7.74707 3.80479C7.35041 3.40819 6.70732 3.40814 6.31072 3.80479L5.3053 4.81021C4.90865 5.20686 4.90865 5.84996 5.3053 6.24656C5.70185 6.64311 6.345 6.64321 6.74165 6.24656Z" fill="white" fill-opacity="0.8"/>
<path d="M3.26588 10.5086C3.78521 10.7237 4.3787 10.476 4.59289 9.95903L5.13706 8.64531C5.35177 8.12709 5.10563 7.533 4.58746 7.3183C4.06913 7.10365 3.47514 7.34973 3.26044 7.8679L2.71627 9.18156C2.50157 9.69984 2.7477 10.2939 3.26588 10.5086Z" fill="white" fill-opacity="0.8"/>
</svg>
